<svg width="256" height="256" viewBox="0 0 256 256" fill="none" xmlns="http://www.w3.org/2000/svg">
<g clip-path="url(#clip0_17_2)">
<path fill-rule="evenodd" clip-rule="evenodd" d="M0 22H34.5397H135.45L148.317 39.581L159.153 22H246.519V95.7048L214.688 113.962L246.519 138.305L256 210.657L246.519 235H135.45V70.0095H92.1058V235H34.5397V70.0095H0V22ZM170.667 138.305H214.688V210.657H170.667V138.305ZM214.688 50.4H178.794L170.667 95.7048H214.688V50.4Z" fill="#DBCECE"/>
<path d="M135.45 22H34.5397H0V70.0095H34.5397V235H92.1058V70.0095H135.45M135.45 22V70.0095M135.45 22V235M135.45 22L148.317 39.581L159.153 22H246.519V95.7048L214.688 113.962L246.519 138.305L256 210.657L246.519 235H135.45M135.45 70.0095V235M178.794 50.4H214.688V95.7048H170.667L178.794 50.4ZM170.667 138.305H214.688V210.657H170.667V138.305Z" stroke="black" stroke-opacity="0.51" stroke-width="2"/>
</g>
<defs>
<clipPath id="clip0_17_2">
<rect width="256" height="256" fill="white"/>
</clipPath>
</defs>
</svg>
