<svg width="256" height="256" viewBox="0 0 256 256" fill="none" xmlns="http://www.w3.org/2000/svg">
<g clip-path="url(#clip0_17_2)">
<path d="M59.553 220V74.848H35.745V40.8H117.921V74.848H94.369V220H59.553ZM131.829 220V74.848H126.965L130.549 40.8H179.445C192.586 40.8 201.973 43.7013 207.605 49.504C213.408 55.136 216.309 64.4373 216.309 77.408V110.944C216.309 116.064 215.882 120.587 215.029 124.512C219.296 130.144 221.429 138.677 221.429 150.112V183.392C221.429 196.363 218.528 205.749 212.725 211.552C207.093 217.184 197.706 220 184.565 220H131.829ZM180.213 113.504C181.066 113.504 181.493 113.077 181.493 112.224V76.128C181.493 75.2747 181.066 74.848 180.213 74.848H166.645V113.504H180.213ZM186.613 148.832C186.613 147.979 186.186 147.552 185.333 147.552H166.645V185.952H185.333C186.186 185.952 186.613 185.525 186.613 184.672V148.832Z" fill="white"/>
</g>
<defs>
<clipPath id="clip0_17_2">
<rect width="256" height="256" fill="white"/>
</clipPath>
</defs>
</svg>
