<svg width="709" height="259" viewBox="0 0 709 259" fill="none" xmlns="http://www.w3.org/2000/svg">
<g clip-path="url(#clip0_36_11)">
<path d="M29.178 220V74.848H5.37V40.8H87.546V74.848H63.994V220H29.178ZM114.234 220C101.093 220 91.6207 217.184 85.818 211.552C80.186 205.749 77.37 196.363 77.37 183.392V128.608C77.37 115.467 80.1007 106.08 85.562 100.448C91.194 94.816 100.41 92 113.21 92H115.514C119.951 92 123.962 92.768 127.546 94.304V92H162.362V185.952H164.922L167.482 220H127.546V206.432L118.33 220H114.234ZM113.466 126.048C112.613 126.048 112.186 126.475 112.186 127.328V184.672C112.186 185.525 112.613 185.952 113.466 185.952H127.546V126.048H113.466ZM179.216 220V74.848H175.12L177.68 40.8H214.032V185.952H219.152L221.712 220H179.216ZM230.906 220V74.848H226.81L229.37 40.8H265.722V124.256L281.594 92H315.642L288.506 147.04L318.202 220H284.154L265.722 174.688V220H230.906ZM326.954 220V74.848H322.09L325.674 40.8H374.57C387.711 40.8 397.098 43.7013 402.73 49.504C408.533 55.136 411.434 64.4373 411.434 77.408V110.944C411.434 116.064 411.007 120.587 410.154 124.512C414.421 130.144 416.554 138.677 416.554 150.112V183.392C416.554 196.363 413.653 205.749 407.85 211.552C402.218 217.184 392.831 220 379.69 220H326.954ZM375.338 113.504C376.191 113.504 376.618 113.077 376.618 112.224V76.128C376.618 75.2747 376.191 74.848 375.338 74.848H361.77V113.504H375.338ZM381.738 148.832C381.738 147.979 381.311 147.552 380.458 147.552H361.77V185.952H380.458C381.311 185.952 381.738 185.525 381.738 184.672V148.832ZM463.734 220C450.593 220 441.121 217.184 435.318 211.552C429.686 205.749 426.87 196.363 426.87 183.392V128.608C426.87 115.467 429.601 106.08 435.062 100.448C440.694 94.816 449.91 92 462.71 92H465.014C469.451 92 473.462 92.768 477.046 94.304V92H511.862V185.952H514.422L516.982 220H477.046V206.432L467.83 220H463.734ZM462.966 126.048C462.113 126.048 461.686 126.475 461.686 127.328V184.672C461.686 185.525 462.113 185.952 462.966 185.952H477.046V126.048H462.966ZM524.62 185.44V128.608C524.62 115.467 527.436 106.08 533.068 100.448C538.871 94.816 548.343 92 561.484 92H572.748C585.889 92 595.276 94.816 600.908 100.448C606.711 106.08 609.612 115.467 609.612 128.608V152.416L574.796 148.576V127.328C574.796 126.475 574.369 126.048 573.516 126.048H560.716C559.863 126.048 559.436 126.475 559.436 127.328V186.72C559.436 187.573 559.863 188 560.716 188H573.516C574.369 188 574.796 187.573 574.796 186.72V163.936H609.612V185.44C609.612 198.411 606.711 207.797 600.908 213.6C595.276 219.232 585.889 222.048 572.748 222.048H561.484C548.343 222.048 538.871 219.232 533.068 213.6C527.436 207.968 524.62 198.581 524.62 185.44ZM621.406 220V74.848H617.31L619.87 40.8H656.222V124.256L672.094 92H706.142L679.006 147.04L708.702 220H674.654L656.222 174.688V220H621.406Z" fill="white"/>
</g>
<defs>
<clipPath id="clip0_36_11">
<rect width="709" height="259" fill="white"/>
</clipPath>
</defs>
</svg>
